<?xml version="1.0" encoding="UTF-8"?>
<svg fill="none" viewBox="0 0 31 31" xmlns="http://www.w3.org/2000/svg">
<g clip-path="url(#a)">
<path d="m26.619 6.7899c-1.0688 0-2.1635 0.23357-3.241 0.71364l-17.437 7.793c-0.05059 0.0237-0.09795 0.0377-0.13455 0.0377-0.14423 0-0.39503-0.2002-0.61784-0.366-0.83421-0.6146-2.0494-1.4972-2.4294-1.7943-0.2874-0.2185-0.68566-0.3466-1.1194-0.3466-0.64153 0-1.1743 0.2551-1.4467 0.6749-0.22174 0.3423-0.26049 0.7642-0.076423 1.1765l2.198 4.8803c0.26587 0.5953 0.9526 1.3111 2.72 1.3111 2.0107 0 5.1311-0.9257 9.0277-2.6619l0.8094-0.366-1.4079 7.5422c-0.169 0.6771-0.1442 1.1378 0.0969 1.4467 0.1539 0.197 0.3853 0.3078 0.6361 0.3078 0.126 0 0.2562-0.0182 0.3864-0.0764l0.9645-0.4241c0.7255-0.324 1.5016-1.3239 1.8514-2.0839l4.5908-9.934c8.7833-4.1128 9.1783-4.9836 8.7952-5.8437-0.4414-0.98705-2.0086-1.987-4.1657-1.987zm-18.055 1.1959c-0.3466 0-0.84604 0.03875-1.2335 0.21204l-0.96444 0.4241c-0.31862 0.14208-0.52851 0.41549-0.54035 0.73302-0.01938 0.59524 0.58555 0.97415 1.0032 1.1958l2.8352 1.7362 5.594-2.508-5.1699-1.5812c-0.4671-0.14208-0.99776-0.21204-1.5241-0.21204z" fill="#5B5B5B"/>
</g>
<defs>
<clipPath id="a">
<rect width="31" height="31" fill="#fff"/>
</clipPath>
</defs>
</svg>
