<?xml version="1.0" encoding="UTF-8"?>
<svg fill="none" viewBox="0 0 31 31" xmlns="http://www.w3.org/2000/svg">
<path d="m25.776 3.4883c-0.5182 0-1.0351 0.1888-1.414 0.56771l-2.444 2.444h-16.918c-0.55208 0-1 0.44792-1 1v12.5c0 0.5521 0.44792 1 1 1h21c0.5521 0 1-0.4479 1-1v-12.5c0-0.1263-0.0273-0.24479-0.0703-0.35547l0.2604-0.26042c0.3789-0.3776 0.5859-0.8802 0.5859-1.4141 0-0.53515-0.207-1.0365-0.5859-1.4141-0.3763-0.3776-0.8958-0.56771-1.4141-0.56771zm-20.776 4.0117h15.918l-4.3933 4.3932c-1.8528 0.3815-2.0924 2.0339-2.2669 3.2683-0.043 0.3007-0.0898 0.5781-0.1484 0.8385h-7.1094c-0.17969-0.0026-0.34766 0.0924-0.4388 0.2474-0.09115 0.1562-0.09115 0.349 0 0.5052 0.09114 0.155 0.25911 0.25 0.4388 0.2474h8c0.0404 0 0.082-0.0039 0.1211-0.0143 2.2292-0.0612 3.5625-0.4987 4.1588-2.1914l6.7201-6.7201 0.0013 10.426h-0.0013v-0.5h-21v-10.5zm14.059 3.2734 1.4141 1.4141-1.4141 1.4141-1.4141-1.4141 1.4141-1.4141zm-6.5586 11.227v1h-1c-1.1029 0-2 0.8971-2 2 0 0.276 0.22396 0.5 0.5 0.5h11c0.276 0 0.5-0.224 0.5-0.5 0-1.1029-0.8971-2-2-2h-1v-1h-6z" fill="#5B5B5B"/>
</svg>
