<?xml version="1.0" encoding="UTF-8"?>
<svg fill="none" viewBox="0 0 25 25" xmlns="http://www.w3.org/2000/svg">
<rect width="25" height="25" rx="5" fill="#FFE7FD"/>
<g clip-path="url(#d)">
<path d="m17.062 18.875h-8.125c-0.6901 0-1.25-0.5599-1.25-1.25v-11.875c0-0.6901 0.5599-1.25 1.25-1.25h8.125c0.6901 0 1.25 0.5599 1.25 1.25v11.875c0 0.6901-0.5599 1.25-1.25 1.25z" fill="url(#a)"/>
<path d="m8.7812 6.8438v-1.0938c0-0.08626 0.06999-0.15625 0.15625-0.15625h0.78125" stroke="#fff" stroke-linecap="round" stroke-linejoin="round" stroke-miterlimit="10"/>
<mask id="c" x="3" y="2" width="20" height="20" style="mask-type:luminance" maskUnits="userSpaceOnUse">
<path d="M23 2H3V22H23V2Z" fill="#000" fill-opacity=".3"/>
</mask>
<g mask="url(#c)">
<mask id="b" x="3" y="2" width="20" height="20" style="mask-type:luminance" maskUnits="userSpaceOnUse">
<path d="M23 2H3V22H23V2Z" fill="#fff"/>
</mask>
<g mask="url(#b)">
<path d="m13.938 4.5h-5c-0.6901 0-1.25 0.5599-1.25 1.25v5.9375c0.86263 0 1.5625-0.6999 1.5625-1.5625v-3.4375c0-0.34505 0.27995-0.625 0.625-0.625h2.5c0.8626 0 1.5625-0.69987 1.5625-1.5625z" fill="#fff"/>
</g>
</g>
<path d="m15.806 10.726v2.8605c0 0.4695-0.455 0.7568-0.8081 0.5119l-2.0638-1.4332c-0.3378-0.2343-0.337-0.7893 8e-4 -1.0229l2.0638-1.4282c0.3532-0.24417 0.8073 0.0431 0.8073 0.5119z" fill="#FDDB65"/>
<path d="m19.25 12.938-3.7605 0.0017v-1.5666l3.7581 0.0024c0.3434 0 0.6226 0.2767 0.625 0.6201l0.0024 0.3134c0.0025 0.3466-0.2783 0.629-0.625 0.629z" fill="#FDDB65"/>
</g>
<defs>
<linearGradient id="a" x1="13" x2="13" y1="4.5" y2="18.875" gradientUnits="userSpaceOnUse">
<stop stop-color="#FE5353" offset="0"/>
<stop stop-color="#FF9AE9" offset="1"/>
</linearGradient>
<clipPath id="d">
<rect transform="translate(3 2)" width="20" height="20" fill="#fff"/>
</clipPath>
</defs>
</svg>
