<?xml version="1.0" encoding="UTF-8"?>
<svg viewBox="0 0 25 25" xmlns="http://www.w3.org/2000/svg">
<rect width="25" height="25" rx="5" fill="#DBFFDC"/>
<path d="M6 13.9445V17.5556C6 18.353 6.64699 19 7.44444 19H17.5556C18.353 19 19 18.353 19 17.5556V13.9445H6Z" fill="#5B5B5B"/>
<path d="m19 13.944c0 0.7975-0.647 1.4445-1.4444 1.4445h-10.111c-0.79745 0-1.4444-0.647-1.4444-1.4445l1.0833-6.5c0.11285-0.8125 0.64699-1.4444 1.4444-1.4444h7.9444c0.7975 0 1.309 0.56424 1.4445 1.4444l1.0833 6.5z" fill="#00953C"/>
<path d="m16.472 16.472c-0.3987 0-0.7222 0.3235-0.7222 0.7222s0.3235 0.7222 0.7222 0.7222 0.7222-0.3235 0.7222-0.7222-0.3235-0.7222-0.7222-0.7222z" fill="#64DD17"/>
<path d="m12.5 8.1666c-0.1993 0-0.3611 0.16174-0.3611 0.36111 0 0.19936 0.1618 0.36111 0.3611 0.36111 0.1994 0 0.3611-0.16175 0.3611-0.36111 0-0.19937-0.1617-0.36111-0.3611-0.36111zm3.25 1.0833c-0.1993 0-0.3611 0.16175-0.3611 0.36111s0.1618 0.36111 0.3611 0.36111c0.1994 0 0.3611-0.16175 0.3611-0.36111s-0.1617-0.36111-0.3611-0.36111zm-6.5 0c-0.19937 0-0.36111 0.16175-0.36111 0.36111s0.16174 0.36111 0.36111 0.36111c0.19936 0 0.36111-0.16175 0.36111-0.36111s-0.16175-0.36111-0.36111-0.36111z" fill="#FFD54F"/>
<path d="m15.5 12.861 0.2501-3.25-1.8056 1.8056-1.4444-2.6933-1.4444 2.6933-1.8056-1.8056 0.25014 3.25h5.9998z" fill="#FFD54F"/>
</svg>
