<svg xmlns="http://www.w3.org/2000/svg" fill="none" viewBox="0 0 32 32">
<g clip-path="url(#a)">
<path d="m15.36 0v3.2h-4.48c-0.3517 0-0.64 0.28833-0.64 0.64v3.2h-3.2c-0.35167 0-0.64 0.28833-0.64 0.64v3.74l9-3c0.195-0.065 0.395-0.1 0.6-0.1 0.2083 0 0.425 0.035 0.62 0.1l8.98 3.02v-3.76c0-0.35167-0.285-0.64-0.64-0.64h-3.2v-3.2c0-0.35167-0.285-0.64-0.64-0.64h-4.48v-3.2h-1.28zm0.64 9.6c-0.0683 0-0.135 0.01833-0.2 0.04l-12.3 4.08c-0.62167 0.2083-1.1083 0.675-1.38 1.28s-0.27 1.295 0 1.92l2.36 4.98v4.18c0.32-0.2217 0.69-0.36 1.08-0.36 0.44 0 0.87833 0.1617 1.22 0.44 0.555 0.4517 1.5783 0.66 2.3 0.66s1.765-0.21 2.32-0.66c0.34-0.2783 0.76-0.44 1.2-0.44s0.8783 0.1617 1.22 0.44c0.555 0.4517 1.5783 0.66 2.3 0.66s1.7617-0.205 2.32-0.66c0.3417-0.2783 0.76-0.44 1.2-0.44s0.88 0.1617 1.22 0.44c0.555 0.4517 1.5783 0.66 2.3 0.66s1.7617-0.205 2.32-0.66c0.3417-0.2783 0.76-0.44 1.2-0.44 0.29 0 0.5817 0.075 0.84 0.2v-4.02l2.3-4.98c0.285-0.5717 0.31-1.2383 0.06-1.84-0.265-0.6383-0.8017-1.14-1.46-1.36l-12.22-4.08c-0.065-0.02167-0.1317-0.04-0.2-0.04zm-5.44 6.4c0.53 0 0.96 0.715 0.96 1.6s-0.43 1.6-0.96 1.6-0.96-0.715-0.96-1.6 0.43-1.6 0.96-1.6zm10.88 0c0.53 0 0.96 0.715 0.96 1.6s-0.43 1.6-0.96 1.6-0.96-0.715-0.96-1.6 0.43-1.6 0.96-1.6zm-15.88 11c-0.14167 0-0.28167 0.065-0.4 0.16-0.86 0.6983-2.22 0.94-3.12 0.94-0.22167 0-0.43-0.025-0.62-0.04-0.19167-0.0183-0.35833-0.02-0.52-0.02-0.35167 0-0.64 0.285-0.64 0.64s0.28833 0.64 0.64 0.64c0.13 0 0.265 0.0083 0.42 0.02 0.22167 0.02 0.45833 0.04 0.72 0.04 1.03 0 2.435-0.2517 3.52-0.94 1.085 0.6883 2.49 0.94 3.52 0.94s2.435-0.2517 3.52-0.94c1.085 0.6883 2.49 0.94 3.52 0.94s2.435-0.2517 3.52-0.94c1.0817 0.6883 2.49 0.94 3.52 0.94s2.435-0.2517 3.52-0.94c1.0817 0.6883 2.49 0.94 3.52 0.94 0.5283 0 1.005-0.0817 1.4-0.24 0.3283-0.1317 0.49-0.5117 0.36-0.84-0.1317-0.3283-0.5117-0.49-0.84-0.36-0.2417 0.0983-0.5583 0.16-0.92 0.16-0.9 0-2.2417-0.2417-3.1-0.94-0.235-0.1917-0.585-0.1917-0.82 0-0.86 0.6983-2.22 0.94-3.12 0.94s-2.2417-0.2417-3.1-0.94c-0.235-0.1917-0.585-0.1917-0.82 0-0.86 0.6983-2.22 0.94-3.12 0.94s-2.2417-0.2417-3.1-0.94c-0.235-0.1917-0.585-0.1917-0.82 0-0.86 0.6983-2.22 0.94-3.12 0.94s-2.2417-0.2417-3.1-0.94c-0.11833-0.095-0.27833-0.16-0.42-0.16zm-0.06 2.56c-0.12833 0.0183-0.245 0.075-0.34 0.16-0.83 0.675-2.275 0.94-3.12 0.94-0.38833 0-0.735-0.06-1.14-0.06-0.23-0.0017-0.445 0.1183-0.56167 0.3183-0.11667 0.2-0.11667 0.4434 0 0.6434 0.11667 0.2 0.33167 0.32 0.56167 0.3183 0.235 0 0.63 0.06 1.14 0.06 0.96167 0 2.36-0.2883 3.52-1.04 1.1617 0.7617 2.5517 1.04 3.52 1.04 0.9617 0 2.36-0.2883 3.52-1.04 1.1617 0.7617 2.5517 1.04 3.52 1.04 0.9617 0 2.36-0.2883 3.52-1.04 1.1617 0.7617 2.5517 1.04 3.52 1.04 0.9617 0 2.36-0.2883 3.52-1.04 1.1617 0.7617 2.5517 1.04 3.52 1.04 0.51 0 0.985-0.075 1.4-0.24 0.3317-0.1317 0.4917-0.5083 0.36-0.84s-0.5083-0.4917-0.84-0.36c-0.225 0.09-0.5317 0.16-0.92 0.16-0.845 0-2.27-0.265-3.1-0.94-0.2383-0.1983-0.5817-0.1983-0.82 0-0.8317 0.675-2.275 0.94-3.12 0.94s-2.27-0.265-3.1-0.94c-0.2383-0.1983-0.5817-0.1983-0.82 0-0.8317 0.675-2.275 0.94-3.12 0.94s-2.27-0.265-3.1-0.94c-0.2383-0.1983-0.5817-0.1983-0.82 0-0.83 0.675-2.275 0.94-3.12 0.94s-2.27-0.265-3.1-0.94c-0.115-0.1017-0.265-0.16-0.42-0.16h-0.06z" fill="#5b5b5b"/>
</g>
<defs fill="#000000">
<clipPath id="a" fill="#000000">
<rect width="32" height="32" fill="#fff"/>
</clipPath>
</defs>
</svg>