<?xml version="1.0" encoding="UTF-8"?>
<svg fill="none" viewBox="0 0 27 27" xmlns="http://www.w3.org/2000/svg">
<g clip-path="url(#a)">
<path d="m4.1512 0c-0.48797 0-0.90984 0.35859-1.0125 0.8775l-2.7844 16.521c0.22781-0.0759 0.46547-0.1181 0.72562-0.1181h24.84c0.263 0 0.5133 0.0577 0.7425 0.135l-2.7506-16.554c-0.0999-0.50203-0.5231-0.86062-1.0125-0.86062h-18.748zm9.3488 3.3919c0.5527 0 0.9956 0.45703 0.9956 1.0125 0 0.39234-0.2292 0.71296-0.5568 0.8775l2.2275 4.4719 2.5481-1.7888c-0.1139-0.16172-0.2025-0.34453-0.2025-0.55687 0-0.55547 0.4598-1.0125 1.0125-1.0125 0.5526 0 0.9956 0.45984 0.9956 1.0125 0 0.55546-0.443 0.99562-0.9956 0.99562-0.0675 0-0.1392-0.02109-0.2025-0.03375l-0.9619 4.05h-9.72l-0.96187-4.05c-0.0661 0.01266-0.135 0.03375-0.2025 0.03375-0.55547 0-0.99563-0.44297-0.99563-0.99562 0-0.55547 0.44297-1.0125 0.99563-1.0125 0.55265 0 1.0125 0.45703 1.0125 1.0125 0 0.21515-0.0886 0.39515-0.2025 0.55687l2.5313 1.7888 2.2444-4.4719c-0.3277-0.16454-0.5569-0.48516-0.5569-0.8775 0-0.55547 0.4429-1.0125 0.9956-1.0125zm-4.32 10.108h8.64c0.2995 0 0.54 0.2405 0.54 0.54s-0.2405 0.54-0.54 0.54h-8.64c-0.29672 0-0.54-0.2405-0.54-0.54s0.24328-0.54 0.54-0.54zm-8.1 4.86c-0.62578 0-1.08 0.4542-1.08 1.08v6.48c0 0.6258 0.45422 1.08 1.08 1.08h24.84c0.6258 0 1.08-0.4542 1.08-1.08v-6.48c0-0.6258-0.4542-1.08-1.08-1.08h-24.84zm20.52 3.24c0.5948 0 1.08 0.4852 1.08 1.08s-0.4852 1.08-1.08 1.08-1.08-0.4852-1.08-1.08 0.4852-1.08 1.08-1.08z" fill="#5B5B5B"/>
</g>
<defs>
<clipPath id="a">
<rect width="27" height="27" fill="#fff"/>
</clipPath>
</defs>
</svg>
