<svg width="46" height="47" viewBox="0 0 46 47" fill="none"
                  xmlns="http://www.w3.org/2000/svg">
                  <rect y="0.5" width="46" height="46" rx="5" fill="#DBFFDC" />
                  <g clip-path="url(#clip0_1594_28036)">
                    <mask id="mask0_1594_28036" style="mask-type: luminance" maskUnits="userSpaceOnUse" x="6" y="6"
                      width="34" height="35">
                      <path d="M40 6.5H6V40.5H40V6.5Z" fill="black" fill-opacity="0.35" />
                    </mask>
                    <g mask="url(#mask0_1594_28036)">
                      <mask id="mask1_1594_28036" style="mask-type: luminance" maskUnits="userSpaceOnUse" x="6" y="6"
                        width="34" height="35">
                        <path d="M40 6.5H6V40.5H40V6.5Z" fill="white" />
                      </mask>
                      <g mask="url(#mask1_1594_28036)">
                        <path
                          d="M34.3333 32C34.3333 34.3473 32.4305 36.25 30.0833 36.25H17.3333C14.986 36.25 13.0833 34.3473 13.0833 32V15C13.0833 12.6527 14.986 10.75 17.3333 10.75H30.0833C32.4305 10.75 34.3333 12.6527 34.3333 15V32Z"
                          fill="#00953C" />
                      </g>
                    </g>
                    <path
                      d="M25.8333 32V30.5833C25.8333 29.0182 24.5651 27.75 22.9999 27.75H11.6666C10.1014 27.75 8.83325 29.0182 8.83325 30.5833V32C8.83325 34.3473 10.736 36.25 13.0833 36.25H30.0833C27.736 36.25 25.8333 34.3473 25.8333 32Z"
                      fill="#00953C" />
                    <path
                      d="M28.6667 19.25H24.4167C23.6336 19.25 23 18.6154 23 17.8333C23 17.0512 23.6336 16.4166 24.4167 16.4166H28.6667C29.4497 16.4166 30.0833 17.0512 30.0833 17.8333C30.0833 18.6154 29.4497 19.25 28.6667 19.25Z"
                      fill="#00953C" />
                    <path
                      d="M28.6667 24.9167H24.4167C23.6336 24.9167 23 24.2822 23 23.5C23 22.7179 23.6336 22.0834 24.4167 22.0834H28.6667C29.4497 22.0834 30.0833 22.7179 30.0833 23.5C30.0833 24.2822 29.4497 24.9167 28.6667 24.9167Z"
                      fill="#00953C" />
                    <path
                      d="M20.1666 17.8333C20.1666 18.6154 19.532 19.25 18.7499 19.25C17.9678 19.25 17.3333 18.6154 17.3333 17.8333C17.3333 17.0512 17.9678 16.4166 18.7499 16.4166C19.532 16.4166 20.1666 17.0512 20.1666 17.8333Z"
                      fill="#00953C" />
                    <path
                      d="M20.1666 23.5C20.1666 24.2822 19.532 24.9167 18.7499 24.9167C17.9678 24.9167 17.3333 24.2822 17.3333 23.5C17.3333 22.7179 17.9678 22.0834 18.7499 22.0834C19.532 22.0834 20.1666 22.7179 20.1666 23.5Z"
                      fill="#00953C" />
                  </g>
                  <defs>
                    <clipPath id="clip0_1594_28036">
                      <rect width="34" height="34" fill="white" transform="translate(6 6.5)" />
                    </clipPath>
                  </defs>
                </svg>