<svg width="46" height="47" viewBox="0 0 46 47" fill="none"
                  xmlns="http://www.w3.org/2000/svg">
                  <rect y="0.5" width="46" height="46" rx="5" fill="#FFE7FD" />
                  <path
                    d="M22.2097 8.81506C22.0315 8.81709 21.8553 8.8576 21.6953 8.93862L19.3781 10.0972C18.9852 10.2916 18.7381 10.6927 18.7381 11.1322V15.7644H12.9473C11.0434 15.7644 9.47363 17.3342 9.47363 19.2381V35.4499C9.47363 35.8894 9.72276 36.2905 10.1137 36.4869L12.4308 37.6435C12.7569 37.8075 13.1397 37.8075 13.4658 37.6435L15.2644 36.7442L17.063 37.6435C17.377 37.8015 17.7476 37.8075 18.0656 37.6597L20.0405 36.7462L21.6588 37.6273C21.991 37.8075 22.392 37.8136 22.7303 37.6435L24.8023 36.6085H36.1085C36.7485 36.6085 37.267 36.0899 37.267 35.4499V23.8703C37.267 23.2303 36.7485 22.7118 36.1085 22.7118H25.6854V19.2381C25.6854 18.5839 26.1898 18.0795 26.844 18.0795C27.4982 18.0795 28.0026 18.5839 28.0026 19.2381C27.9965 19.6553 28.2152 20.0442 28.5758 20.2549C28.9383 20.4655 29.3839 20.4655 29.7445 20.2549C30.105 20.0442 30.3237 19.6553 30.3177 19.2381C30.3177 17.3949 28.8472 15.8799 27.0283 15.7827C27.0101 15.7786 26.9939 15.7766 26.9757 15.7725C26.9372 15.7685 26.8987 15.7644 26.8602 15.7644C26.8541 15.7644 26.8501 15.7644 26.844 15.7644H21.0552V11.8472L22.1895 11.2801L23.7856 12.149C24.1076 12.3252 24.4945 12.3373 24.8266 12.1834L26.8237 11.2578L28.6426 12.1672C28.9687 12.3313 29.3515 12.3313 29.6776 12.1672L31.4762 11.2679L32.6348 11.8472V19.2381C32.6287 19.6553 32.8475 20.0442 33.208 20.2549C33.5685 20.4655 34.0162 20.4655 34.3767 20.2549C34.7372 20.0442 34.956 19.6553 34.9499 19.2381V11.1322C34.9499 10.6927 34.7028 10.2916 34.3099 10.0972L31.9948 8.93862C31.6687 8.77455 31.2838 8.77455 30.9577 8.93862L29.1611 9.83792L27.3625 8.93862C27.0465 8.78063 26.6779 8.77455 26.3579 8.92241L24.3831 9.8359L22.7667 8.95685C22.5966 8.86367 22.4042 8.81506 22.2097 8.81506ZM12.9473 18.0795H19.7022C19.8278 18.1018 19.9554 18.1018 20.079 18.0795H23.8524C23.6944 18.4765 23.3703 18.7884 23.3703 19.2381V34.7349L22.234 35.3041L20.638 34.4331C20.3159 34.2569 19.9311 34.2447 19.5969 34.3987L17.5998 35.3243L15.7829 34.4149C15.4569 34.2508 15.072 34.2508 14.7459 34.4149L12.9473 35.3142L11.7908 34.7349V19.2381C11.7908 18.5839 12.2931 18.0795 12.9473 18.0795ZM32.6348 25.0289H34.9499V27.344C33.7873 27.109 32.8718 26.1915 32.6348 25.0289ZM25.6854 26.1854H26.1797C27.8264 26.1854 29.1611 27.5202 29.1611 29.1669V30.1533C29.1611 31.8 27.8264 33.1348 26.1797 33.1348H25.6854V26.1854ZM34.9499 31.9762V34.2934H32.6348C32.8718 33.1287 33.7873 32.2132 34.9499 31.9762Z"
                    fill="#FF7AE2" />
                </svg>