<svg width="46" height="46" viewBox="0 0 46 46" fill="none"
                  xmlns="http://www.w3.org/2000/svg">
                  <rect width="46" height="46" rx="5" fill="#E7F7FF" />
                  <path
                    d="M19.8 9.28003C18.7484 9.28003 17.88 10.1484 17.88 11.2V12.48H10.1484C9.11836 12.48 8.28003 13.31 8.28003 14.33V24C8.28003 24.3517 8.5417 24.64 8.86836 24.64H28.3617C29.58 23.8317 31.035 23.36 32.6 23.36C34.5684 23.36 36.36 24.11 37.72 25.33V14.33C37.72 13.31 36.8817 12.48 35.8517 12.48H28.12V11.2C28.12 10.1484 27.2517 9.28003 26.2 9.28003H19.8ZM19.8 10.56H26.2C26.56 10.56 26.84 10.84 26.84 11.2V12.48H19.16V11.2C19.16 10.84 19.44 10.56 19.8 10.56ZM23 20.8C23.7084 20.8 24.28 21.3717 24.28 22.08C24.28 22.7884 23.7084 23.36 23 23.36C22.2917 23.36 21.72 22.7884 21.72 22.08C21.72 21.3717 22.2917 20.8 23 20.8ZM32.6 24.64C29.0717 24.64 26.2 27.5117 26.2 31.04C26.2 32.575 26.745 33.9817 27.65 35.0884L23.8284 38.9084L24.7317 39.8117L28.5517 35.99C29.6584 36.895 31.065 37.44 32.6 37.44C36.1284 37.44 39 34.5684 39 31.04C39 27.5117 36.1284 24.64 32.6 24.64ZM8.28003 25.8117V33.67C8.28003 34.69 9.11836 35.52 10.1484 35.52H25.405L25.9884 34.94C25.295 33.7617 24.92 32.4117 24.92 31.04C24.92 29.0717 25.67 27.28 26.89 25.92H8.86836C8.6617 25.92 8.46503 25.8784 8.28003 25.8117ZM32.6 25.92C35.435 25.92 37.72 28.205 37.72 31.04C37.72 33.875 35.435 36.16 32.6 36.16C29.765 36.16 27.48 33.875 27.48 31.04C27.48 28.205 29.765 25.92 32.6 25.92Z"
                    fill="#4BB4FF" />
                </svg>